{"title":"Flo Rida - How I Feel [Music Video] 720p [Sbyky]","uid":9209654,"size":36202751,"categoryP":"video","categoryS":"music_videos","magnet":"?xt=urn:btih:43b70d0368afcf8e068f128ec258107c65ea45fe&amp;dn=Flo+Rida+-+How+I+Feel+%5BMusic+Video%5D+720p+%5BSbyky%5D&amp;tr=udp%3A%2F%2Ftracker.openbittorrent.com%3A80&amp;tr=udp%3A%2F%2Fopen.demonii.com%3A1337&amp;tr=udp%3A%2F%2Ftracker.coppersurfer.tk%3A6969&amp;tr=udp%3A%2F%2Fexodus.desync.com%3A6969","seeders":1,"leechers":1,"uploader":"Sbyky","files":1,"time":1384755933,"description":"[IMG]http://cdn.piczend.com/images/hV6BaVcr/1384751258_howifeel.jpg[/IMG]\n\nGeneral\nComplete name                            : Flo Rida - How I Feel [Music Video] 720p [Sbyky].MP4\nFormat                                   : MPEG-4\nFormat profile                           : Base Media\nCodec ID                                 : isom\nFile size                                : 34.5 MiB\nDuration                                 : 2mn 57s\nOverall bit rate mode                    : Variable\nOverall bit rate                         : 1 628 Kbps\nEncoded date                             : UTC 2013-11-15 23:51:08\nTagged date                              : UTC 2013-11-15 23:51:08\n\nVideo\nID                                       : 1\nFormat                                   : AVC\nFormat/Info                              : Advanced Video Codec\nFormat profile                           : &lt;a class=&quot;__cf_email__&quot; href=&quot;/cdn-cgi/l/email-protection&quot; data-cfemail=&quot;fab79b9394bab6c9d4cb&quot;&gt;[email&amp;#160;protected]&lt;/a&gt;&lt;script cf-hash='f9e31' type=&quot;text/javascript&quot;&gt;\n/* &lt;![CDATA[ */!function(){try{var t=&quot;currentScript&quot;in document?document.currentScript:function(){for(var t=document.getElementsByTagName(&quot;script&quot;),e=t.length;e--;)if(t[e].getAttribute(&quot;cf-hash&quot;))return t[e]}();if(t&amp;&amp;t.previousSibling){var e,r,n,i,c=t.previousSibling,a=c.getAttribute(&quot;data-cfemail&quot;);if(a){for(e=&quot;&quot;,r=parseInt(a.substr(0,2),16),n=2;a.length-n;n+=2)i=parseInt(a.substr(n,2),16)^r,e+=String.fromCharCode(i);e=document.createTextNode(e),c.parentNode.replaceChild(e,c)}}}catch(u){}}();/* ]]&gt; */&lt;/script&gt;\nFormat settings, CABAC                   : Yes\nFormat settings, ReFrames                : 3 frames\nCodec ID                                 : avc1\nCodec ID/Info                            : Advanced Video Coding\nDuration                                 : 2mn 57s\nDuration_LastFrame                       : -42ms\nBit rate                                 : 1 372 Kbps\nWidth                                    : 1 280 pixels\nHeight                                   : 720 pixels\nDisplay aspect ratio                     : 16:9\nFrame rate mode                          : Constant\nFrame rate                               : 23.976 fps\nColor space                              : YUV\nChroma subsampling                       : 4:2:0\nBit depth                                : 8 bits\nScan type                                : Progressive\nBits/(Pixel*Frame)                       : 0.062\nStream size                              : 29.1 MiB (84%)\nEncoded date                             : UTC 2013-11-15 23:51:08\nTagged date                              : UTC 2013-11-15 23:51:08\n\nAudio\nID                                       : 2\nFormat                                   : AAC\nFormat/Info                              : Advanced Audio Codec\nFormat profile                           : LC\nCodec ID                                 : 40\nDuration                                 : 2mn 57s\nBit rate mode                            : Variable\nBit rate                                 : 254 Kbps\nChannel(s)                               : 2 channels\nChannel positions                        : Front: L R\nSampling rate                            : 44.1 KHz\nCompression mode                         : Lossy\nDelay relative to video                  : 42ms\nStream size                              : 5.38 MiB (16%)\nEncoded date                             : UTC 2013-11-15 23:50:07\nTagged date                              : UTC 2013-11-15 23:50:07\n\nShared By Sbyky\n[IMG]http://cdn.piczend.com/images/X3Ag13N3/1379453786_saythanks.gif[/IMG]\n[IMG]http://cdn.piczend.com/images/gGqhX2S8/1379453780_keepseeding.gif[/IMG]","torrent":{"xt":"urn:btih:43b70d0368afcf8e068f128ec258107c65ea45fe","amp;dn":"Flo+Rida+-+How+I+Feel+%5BMusic+Video%5D+720p+%5BSbyky%5D","amp;tr":["udp%3A%2F%2Ftracker.openbittorrent.com%3A80","udp%3A%2F%2Fopen.demonii.com%3A1337","udp%3A%2F%2Ftracker.coppersurfer.tk%3A6969","udp%3A%2F%2Fexodus.desync.com%3A6969"],"infoHash":"43b70d0368afcf8e068f128ec258107c65ea45fe","infoHashBuffer":{"type":"Buffer","data":[67,183,13,3,104,175,207,142,6,143,18,142,194,88,16,124,101,234,69,254]},"announce":[],"urlList":[]}}